<svg width="1616" height="713" viewBox="0 0 1616 713" fill="none" xmlns="http://www.w3.org/2000/svg">
<path d="M962.904 696.661C908.903 682.16 95.9995 450.934 95.9995 450.934C95.9995 450.934 -14.0011 383.935 1.49944 295.434C17 206.934 72.2194 9.50025 75.7397 0.000252804L1517.17 7.19616e-06L1615.05 135.137C1615.05 135.137 1543.5 528.537 1517.17 556.517C1490.83 584.497 1228.03 669.937 1153.38 696.662C1078.73 723.387 1016.91 711.162 962.904 696.661Z" fill="url(#paint0_linear)" fill-opacity="0.7"/>
<path d="M939.62 680.035C886.924 665.889 93.6757 440.325 93.6757 440.325C93.6757 440.325 -13.6652 374.966 1.46057 288.634C16.5863 202.301 70.4705 9.70191 73.9058 0.434517L1480.48 0.434273L1576 132.262C1576 132.262 1506.18 516.028 1480.48 543.322C1454.78 570.617 1198.34 653.964 1125.49 680.035C1052.64 706.106 992.316 694.181 939.62 680.035Z" fill="url(#paint1_linear)"/>
<defs>
<linearGradient id="paint0_linear" x1="75.7415" y1="348.838" x2="1476.07" y2="48.8422" gradientUnits="userSpaceOnUse">
<stop offset="0.0409537" stop-color="#32026B"/>
<stop offset="1" stop-color="#F05454" stop-opacity="0.92"/>
</linearGradient>
<linearGradient id="paint1_linear" x1="73.9075" y1="340.73" x2="1440.34" y2="47.9022" gradientUnits="userSpaceOnUse">
<stop offset="0.0409537" stop-color="#32026B"/>
<stop offset="1" stop-color="#F05454" stop-opacity="0.92"/>
</linearGradient>
</defs>
</svg>
