<svg width="2088" height="493" viewBox="0 0 2088 493" fill="none" xmlns="http://www.w3.org/2000/svg">
<path fill-rule="evenodd" clip-rule="evenodd" d="M0 375.336L70 385.002C139 394.366 278 413.094 418 410.073C557 407.052 696 381.679 835 394.366C974 407.052 1114 457.195 1253 479.548C1392 501.599 1531 495.255 1670 469.882C1810 444.81 1949 400.709 2018 378.658L2088 356.608V337.578H2018C1949 337.578 1810 337.578 1670 337.578C1531 337.578 1392 337.578 1253 337.578C1114 337.578 974 337.578 835 337.578C696 337.578 557 337.578 418 337.578C278 337.578 139 337.578 70 337.578H0V375.336Z" fill="#5587E3"/>
<path fill-rule="evenodd" clip-rule="evenodd" d="M0 447.347L57.9987 423.36C115.997 399.372 231.995 351.766 347.992 348.814C463.99 346.231 579.987 388.67 695.984 396.789C811.982 404.908 927.979 378.337 1043.98 372.801C1159.97 367.635 1275.97 383.504 1391.97 399.372C1507.97 415.241 1623.96 431.479 1739.96 423.36C1855.96 415.241 1971.96 383.504 2029.95 367.635L2087.95 351.766V303.791V0C2029.95 0 1910 0 1794 0C1678 0 1743 0 1627 0C1511 0 1209 0 1093 0C977.003 0 898.497 0 782.5 0C666.503 0 708.997 0.000270358 593 0.000270358C477.003 0.000573917 57.9987 0 0 0V303.791V447.347Z" fill="#182C6E"/>
</svg>
